<mxfile host="Electron" modified="2023-05-08T13:50:21.243Z" agent="Mozilla/5.0 (Windows NT 10.0; Win64; x64) AppleWebKit/537.36 (KHTML, like Gecko) draw.io/21.2.1 Chrome/112.0.5615.87 Electron/24.1.2 Safari/537.36" etag="y5KA95LvQNrdqO-W9RQM" version="21.2.1" type="device">
  <diagram name="Stránka-1" id="Hc6EWw1zSbZy6vTQ2z6B">
    <mxGraphModel dx="1036" dy="606" grid="1" gridSize="10" guides="1" tooltips="1" connect="1" arrows="1" fold="1" page="1" pageScale="1" pageWidth="827" pageHeight="1169" math="0" shadow="0">
      <root>
        <mxCell id="0" />
        <mxCell id="1" parent="0" />
        <mxCell id="qgVuJTGQNqL46tquMSFM-15" value="" style="rounded=0;whiteSpace=wrap;html=1;fillColor=#dae8fc;strokeColor=#3f5370;strokeWidth=2;" parent="1" vertex="1">
          <mxGeometry x="190" y="130" width="340" height="170" as="geometry" />
        </mxCell>
        <mxCell id="qgVuJTGQNqL46tquMSFM-8" style="edgeStyle=orthogonalEdgeStyle;rounded=0;orthogonalLoop=1;jettySize=auto;html=1;exitX=0;exitY=0;exitDx=90;exitDy=75.5;exitPerimeter=0;entryX=0;entryY=0.75;entryDx=0;entryDy=0;curved=1;" parent="1" source="qgVuJTGQNqL46tquMSFM-1" target="qgVuJTGQNqL46tquMSFM-2" edge="1">
          <mxGeometry relative="1" as="geometry">
            <Array as="points">
              <mxPoint x="300" y="225" />
              <mxPoint x="300" y="240" />
              <mxPoint x="370" y="240" />
              <mxPoint x="370" y="225" />
            </Array>
          </mxGeometry>
        </mxCell>
        <mxCell id="qgVuJTGQNqL46tquMSFM-9" value="3" style="edgeLabel;html=1;align=center;verticalAlign=middle;resizable=0;points=[];fontSize=13;fontStyle=1;labelBackgroundColor=none;" parent="qgVuJTGQNqL46tquMSFM-8" vertex="1" connectable="0">
          <mxGeometry x="0.1195" y="1" relative="1" as="geometry">
            <mxPoint x="-8" y="11" as="offset" />
          </mxGeometry>
        </mxCell>
        <mxCell id="qgVuJTGQNqL46tquMSFM-1" value="&lt;font style=&quot;font-size: 11px;&quot; face=&quot;Times New Roman&quot;&gt;theses_checker.py&lt;/font&gt;" style="shape=note;whiteSpace=wrap;html=1;backgroundOutline=1;darkOpacity=0.05;size=31;" parent="1" vertex="1">
          <mxGeometry x="200" y="150" width="90" height="120" as="geometry" />
        </mxCell>
        <mxCell id="qgVuJTGQNqL46tquMSFM-6" style="edgeStyle=orthogonalEdgeStyle;rounded=0;orthogonalLoop=1;jettySize=auto;html=1;exitX=0;exitY=0.5;exitDx=0;exitDy=0;entryX=1.004;entryY=0.494;entryDx=0;entryDy=0;entryPerimeter=0;fontSize=13;fontStyle=1;curved=1;" parent="1" source="qgVuJTGQNqL46tquMSFM-2" target="qgVuJTGQNqL46tquMSFM-1" edge="1">
          <mxGeometry relative="1" as="geometry">
            <Array as="points">
              <mxPoint x="380" y="210" />
              <mxPoint x="380" y="190" />
              <mxPoint x="310" y="190" />
              <mxPoint x="310" y="209" />
            </Array>
          </mxGeometry>
        </mxCell>
        <mxCell id="qgVuJTGQNqL46tquMSFM-7" value="2" style="edgeLabel;html=1;align=center;verticalAlign=middle;resizable=0;points=[];fontSize=13;fontStyle=1;labelBackgroundColor=none;" parent="qgVuJTGQNqL46tquMSFM-6" vertex="1" connectable="0">
          <mxGeometry x="-0.1913" y="-1" relative="1" as="geometry">
            <mxPoint x="-14" y="-9" as="offset" />
          </mxGeometry>
        </mxCell>
        <mxCell id="qgVuJTGQNqL46tquMSFM-13" style="edgeStyle=orthogonalEdgeStyle;rounded=0;orthogonalLoop=1;jettySize=auto;html=1;exitX=1;exitY=0.5;exitDx=0;exitDy=0;entryX=0;entryY=0.5;entryDx=0;entryDy=0;entryPerimeter=0;" parent="1" source="qgVuJTGQNqL46tquMSFM-2" target="qgVuJTGQNqL46tquMSFM-12" edge="1">
          <mxGeometry relative="1" as="geometry" />
        </mxCell>
        <mxCell id="qgVuJTGQNqL46tquMSFM-14" value="4" style="edgeLabel;html=1;align=center;verticalAlign=middle;resizable=0;points=[];fontSize=13;fontStyle=1;labelBackgroundColor=none;" parent="qgVuJTGQNqL46tquMSFM-13" vertex="1" connectable="0">
          <mxGeometry x="0.2712" y="1" relative="1" as="geometry">
            <mxPoint x="-4" y="-9" as="offset" />
          </mxGeometry>
        </mxCell>
        <mxCell id="qgVuJTGQNqL46tquMSFM-2" value="Django framework" style="rounded=0;whiteSpace=wrap;html=1;fontFamily=Times New Roman;" parent="1" vertex="1">
          <mxGeometry x="390" y="180" width="120" height="60" as="geometry" />
        </mxCell>
        <mxCell id="qgVuJTGQNqL46tquMSFM-3" value="" style="endArrow=classic;html=1;rounded=0;entryX=0.5;entryY=0;entryDx=0;entryDy=0;exitX=0.5;exitY=1;exitDx=0;exitDy=0;exitPerimeter=0;" parent="1" source="qgVuJTGQNqL46tquMSFM-4" target="qgVuJTGQNqL46tquMSFM-2" edge="1">
          <mxGeometry width="50" height="50" relative="1" as="geometry">
            <mxPoint x="449.84" y="100" as="sourcePoint" />
            <mxPoint x="449.84" y="180" as="targetPoint" />
          </mxGeometry>
        </mxCell>
        <mxCell id="qgVuJTGQNqL46tquMSFM-5" value="1" style="edgeLabel;html=1;align=center;verticalAlign=middle;resizable=0;points=[];fontSize=13;fontStyle=1;labelBackgroundColor=none;" parent="qgVuJTGQNqL46tquMSFM-3" vertex="1" connectable="0">
          <mxGeometry x="0.2113" y="1" relative="1" as="geometry">
            <mxPoint x="9" y="-2" as="offset" />
          </mxGeometry>
        </mxCell>
        <mxCell id="qgVuJTGQNqL46tquMSFM-4" value="PDF" style="shape=note;whiteSpace=wrap;html=1;backgroundOutline=1;darkOpacity=0.05;fontFamily=Times New Roman;size=20;" parent="1" vertex="1">
          <mxGeometry x="425" y="40" width="50" height="70" as="geometry" />
        </mxCell>
        <mxCell id="qgVuJTGQNqL46tquMSFM-12" value="upravené&lt;br&gt;PDF" style="shape=note;whiteSpace=wrap;html=1;backgroundOutline=1;darkOpacity=0.05;fontFamily=Times New Roman;size=20;" parent="1" vertex="1">
          <mxGeometry x="580" y="175" width="50" height="70" as="geometry" />
        </mxCell>
        <mxCell id="qgVuJTGQNqL46tquMSFM-16" value="Theses Checker" style="text;html=1;strokeColor=none;fillColor=none;align=center;verticalAlign=middle;whiteSpace=wrap;rounded=0;fontStyle=1;fontFamily=Times New Roman;fontSize=14;fontColor=#3F5370;labelBorderColor=none;" parent="1" vertex="1">
          <mxGeometry x="310" y="130" width="100" height="30" as="geometry" />
        </mxCell>
      </root>
    </mxGraphModel>
  </diagram>
</mxfile>
